<?xml version="1.0" encoding="UTF-8" standalone="no"?>
<!DOCTYPE svg PUBLIC "-//W3C//DTD SVG 1.1//EN"
 "http://www.w3.org/Graphics/SVG/1.1/DTD/svg11.dtd">
<!-- Generated by graphviz version 14.1.2 (0)
 -->
<!-- Title: snakemake_dag Pages: 1 -->
<svg width="553pt" height="692pt"
 viewBox="0.00 0.00 553.00 692.00" xmlns="http://www.w3.org/2000/svg" xmlns:xlink="http://www.w3.org/1999/xlink">
<g id="graph0" class="graph" transform="scale(1 1) rotate(0) translate(4 688)">
<title>snakemake_dag</title>
<polygon fill="white" stroke="none" points="-4,4 -4,-688 549.25,-688 549.25,4 -4,4"/>
<!-- 0 -->
<g id="node1" class="node">
<title>0</title>
<path fill="none" stroke="#d89556" stroke-width="2" d="M142.12,-36C142.12,-36 112.12,-36 112.12,-36 106.12,-36 100.12,-30 100.12,-24 100.12,-24 100.12,-12 100.12,-12 100.12,-6 106.12,0 112.12,0 112.12,0 142.12,0 142.12,0 148.12,0 154.12,-6 154.12,-12 154.12,-12 154.12,-24 154.12,-24 154.12,-30 148.12,-36 142.12,-36"/>
<text xml:space="preserve" text-anchor="middle" x="127.12" y="-14.88" font-family="sans" font-size="10.00">build</text>
</g>
<!-- 1 -->
<g id="node2" class="node">
<title>1</title>
<path fill="none" stroke="#d8b456" stroke-width="2" d="M198.88,-252C198.88,-252 157.38,-252 157.38,-252 151.38,-252 145.38,-246 145.38,-240 145.38,-240 145.38,-228 145.38,-228 145.38,-222 151.38,-216 157.38,-216 157.38,-216 198.88,-216 198.88,-216 204.88,-216 210.88,-222 210.88,-228 210.88,-228 210.88,-240 210.88,-240 210.88,-246 204.88,-252 198.88,-252"/>
<text xml:space="preserve" text-anchor="middle" x="178.12" y="-230.88" font-family="sans" font-size="10.00">build_sfincs</text>
</g>
<!-- 1&#45;&gt;0 -->
<g id="edge1" class="edge">
<title>1&#45;&gt;0</title>
<path fill="none" stroke="grey" stroke-width="2" d="M174.55,-215.22C170.88,-197.22 164.9,-168.61 159.12,-144 151.49,-111.46 141.89,-74.4 135.2,-49.13"/>
<polygon fill="grey" stroke="grey" stroke-width="2" points="138.64,-48.44 132.69,-39.67 131.87,-50.24 138.64,-48.44"/>
</g>
<!-- 12 -->
<g id="node13" class="node">
<title>12</title>
<path fill="none" stroke="#bed856" stroke-width="2" d="M137.88,-180C137.88,-180 90.38,-180 90.38,-180 84.38,-180 78.38,-174 78.38,-168 78.38,-168 78.38,-156 78.38,-156 78.38,-150 84.38,-144 90.38,-144 90.38,-144 137.88,-144 137.88,-144 143.88,-144 149.88,-150 149.88,-156 149.88,-156 149.88,-168 149.88,-168 149.88,-174 143.88,-180 137.88,-180"/>
<text xml:space="preserve" text-anchor="middle" x="114.12" y="-158.88" font-family="sans" font-size="10.00">create_rstart</text>
</g>
<!-- 1&#45;&gt;12 -->
<g id="edge25" class="edge">
<title>1&#45;&gt;12</title>
<path fill="none" stroke="grey" stroke-width="2" d="M161.98,-215.34C155.06,-207.77 146.81,-198.75 139.13,-190.35"/>
<polygon fill="grey" stroke="grey" stroke-width="2" points="141.87,-188.15 132.53,-183.14 136.7,-192.88 141.87,-188.15"/>
</g>
<!-- 2 -->
<g id="node3" class="node">
<title>2</title>
<path fill="none" stroke="#9fd856" stroke-width="2" d="M338,-612C338,-612 234.25,-612 234.25,-612 228.25,-612 222.25,-606 222.25,-600 222.25,-600 222.25,-588 222.25,-588 222.25,-582 228.25,-576 234.25,-576 234.25,-576 338,-576 338,-576 344,-576 350,-582 350,-588 350,-588 350,-600 350,-600 350,-606 344,-612 338,-612"/>
<text xml:space="preserve" text-anchor="middle" x="286.12" y="-590.88" font-family="sans" font-size="10.00">determine_model_domain</text>
</g>
<!-- 2&#45;&gt;1 -->
<g id="edge4" class="edge">
<title>2&#45;&gt;1</title>
<path fill="none" stroke="grey" stroke-width="2" d="M221.28,-582.68C196.28,-575.19 170.14,-562.28 155.12,-540 125.34,-495.82 156.38,-333.49 171.19,-265.39"/>
<polygon fill="grey" stroke="grey" stroke-width="2" points="174.6,-266.2 173.34,-255.68 167.76,-264.69 174.6,-266.2"/>
</g>
<!-- 4 -->
<g id="node5" class="node">
<title>4</title>
<path fill="none" stroke="#68d856" stroke-width="2" d="M138,-324C138,-324 88.25,-324 88.25,-324 82.25,-324 76.25,-318 76.25,-312 76.25,-312 76.25,-300 76.25,-300 76.25,-294 82.25,-288 88.25,-288 88.25,-288 138,-288 138,-288 144,-288 150,-294 150,-300 150,-300 150,-312 150,-312 150,-318 144,-324 138,-324"/>
<text xml:space="preserve" text-anchor="middle" x="113.12" y="-302.88" font-family="sans" font-size="10.00">get_elevation</text>
</g>
<!-- 2&#45;&gt;4 -->
<g id="edge11" class="edge">
<title>2&#45;&gt;4</title>
<path fill="none" stroke="grey" stroke-width="2" d="M230.4,-575.06C212.49,-566.88 193.98,-555.47 181.12,-540 131.59,-480.43 118.13,-386.25 114.48,-337.89"/>
<polygon fill="grey" stroke="grey" stroke-width="2" points="117.98,-337.77 113.85,-328.01 110.99,-338.21 117.98,-337.77"/>
</g>
<!-- 5 -->
<g id="node6" class="node">
<title>5</title>
<path fill="none" stroke="#56d863" stroke-width="2" d="M84.25,-396C84.25,-396 12,-396 12,-396 6,-396 0,-390 0,-384 0,-384 0,-372 0,-372 0,-366 6,-360 12,-360 12,-360 84.25,-360 84.25,-360 90.25,-360 96.25,-366 96.25,-372 96.25,-372 96.25,-384 96.25,-384 96.25,-390 90.25,-396 84.25,-396"/>
<text xml:space="preserve" text-anchor="middle" x="48.12" y="-374.88" font-family="sans" font-size="10.00">get_land_polygons</text>
</g>
<!-- 2&#45;&gt;5 -->
<g id="edge13" class="edge">
<title>2&#45;&gt;5</title>
<path fill="none" stroke="grey" stroke-width="2" d="M221.44,-587.48C184.76,-581.23 140.31,-567.99 110.12,-540 72.74,-505.32 57.66,-445.56 51.75,-409.42"/>
<polygon fill="grey" stroke="grey" stroke-width="2" points="55.26,-409.21 50.35,-399.82 48.33,-410.22 55.26,-409.21"/>
</g>
<!-- 6 -->
<g id="node7" class="node">
<title>6</title>
<path fill="none" stroke="#56d8c1" stroke-width="2" d="M257.62,-468C257.62,-468 202.62,-468 202.62,-468 196.62,-468 190.62,-462 190.62,-456 190.62,-456 190.62,-444 190.62,-444 190.62,-438 196.62,-432 202.62,-432 202.62,-432 257.62,-432 257.62,-432 263.62,-432 269.62,-438 269.62,-444 269.62,-444 269.62,-456 269.62,-456 269.62,-462 263.62,-468 257.62,-468"/>
<text xml:space="preserve" text-anchor="middle" x="230.12" y="-446.88" font-family="sans" font-size="10.00">get_roughness</text>
</g>
<!-- 2&#45;&gt;6 -->
<g id="edge14" class="edge">
<title>2&#45;&gt;6</title>
<path fill="none" stroke="grey" stroke-width="2" d="M284.45,-575.31C282.22,-556.88 277.32,-527.48 267.12,-504 263.36,-495.33 258.06,-486.62 252.65,-478.84"/>
<polygon fill="grey" stroke="grey" stroke-width="2" points="255.62,-476.97 246.87,-471 249.98,-481.12 255.62,-476.97"/>
</g>
<!-- 7 -->
<g id="node8" class="node">
<title>7</title>
<path fill="none" stroke="#56d882" stroke-width="2" d="M246,-540C246,-540 202.25,-540 202.25,-540 196.25,-540 190.25,-534 190.25,-528 190.25,-528 190.25,-516 190.25,-516 190.25,-510 196.25,-504 202.25,-504 202.25,-504 246,-504 246,-504 252,-504 258,-510 258,-516 258,-516 258,-528 258,-528 258,-534 252,-540 246,-540"/>
<text xml:space="preserve" text-anchor="middle" x="224.12" y="-518.88" font-family="sans" font-size="10.00">get_landuse</text>
</g>
<!-- 2&#45;&gt;7 -->
<g id="edge16" class="edge">
<title>2&#45;&gt;7</title>
<path fill="none" stroke="grey" stroke-width="2" d="M270.48,-575.34C263.85,-567.85 255.96,-558.95 248.59,-550.63"/>
<polygon fill="grey" stroke="grey" stroke-width="2" points="251.24,-548.33 241.99,-543.17 246,-552.97 251.24,-548.33"/>
</g>
<!-- 8 -->
<g id="node9" class="node">
<title>8</title>
<path fill="none" stroke="#d85656" stroke-width="2" d="M355.38,-324C355.38,-324 292.88,-324 292.88,-324 286.88,-324 280.88,-318 280.88,-312 280.88,-312 280.88,-300 280.88,-300 280.88,-294 286.88,-288 292.88,-288 292.88,-288 355.38,-288 355.38,-288 361.38,-288 367.38,-294 367.38,-300 367.38,-300 367.38,-312 367.38,-312 367.38,-318 361.38,-324 355.38,-324"/>
<text xml:space="preserve" text-anchor="middle" x="324.12" y="-302.88" font-family="sans" font-size="10.00">add_river_depth</text>
</g>
<!-- 2&#45;&gt;8 -->
<g id="edge17" class="edge">
<title>2&#45;&gt;8</title>
<path fill="none" stroke="grey" stroke-width="2" d="M288.5,-575.11C294.83,-527.46 312.16,-397.05 320.08,-337.45"/>
<polygon fill="grey" stroke="grey" stroke-width="2" points="323.5,-338.26 321.35,-327.88 316.56,-337.34 323.5,-338.26"/>
</g>
<!-- 9 -->
<g id="node10" class="node">
<title>9</title>
<path fill="none" stroke="#d8d356" stroke-width="2" d="M444.38,-396C444.38,-396 363.88,-396 363.88,-396 357.88,-396 351.88,-390 351.88,-384 351.88,-384 351.88,-372 351.88,-372 351.88,-366 357.88,-360 363.88,-360 363.88,-360 444.38,-360 444.38,-360 450.38,-360 456.38,-366 456.38,-372 456.38,-372 456.38,-384 456.38,-384 456.38,-390 450.38,-396 444.38,-396"/>
<text xml:space="preserve" text-anchor="middle" x="404.12" y="-374.88" font-family="sans" font-size="10.00">clean_river_network</text>
</g>
<!-- 2&#45;&gt;9 -->
<g id="edge19" class="edge">
<title>2&#45;&gt;9</title>
<path fill="none" stroke="grey" stroke-width="2" d="M307.1,-575.2C317.46,-565.58 329.55,-553.03 338.12,-540 365.85,-497.91 385.47,-442.29 395.78,-408.66"/>
<polygon fill="grey" stroke="grey" stroke-width="2" points="399.03,-410 398.52,-399.42 392.32,-408.01 399.03,-410"/>
</g>
<!-- 10 -->
<g id="node11" class="node">
<title>10</title>
<path fill="none" stroke="#56d8a2" stroke-width="2" d="M473.88,-540C473.88,-540 402.38,-540 402.38,-540 396.38,-540 390.38,-534 390.38,-528 390.38,-528 390.38,-516 390.38,-516 390.38,-510 396.38,-504 402.38,-504 402.38,-504 473.88,-504 473.88,-504 479.88,-504 485.88,-510 485.88,-516 485.88,-516 485.88,-528 485.88,-528 485.88,-534 479.88,-540 473.88,-540"/>
<text xml:space="preserve" text-anchor="middle" x="438.12" y="-518.88" font-family="sans" font-size="10.00">get_river_network</text>
</g>
<!-- 2&#45;&gt;10 -->
<g id="edge22" class="edge">
<title>2&#45;&gt;10</title>
<path fill="none" stroke="grey" stroke-width="2" d="M324.87,-575.15C343.92,-566.38 367.11,-555.71 387.53,-546.3"/>
<polygon fill="grey" stroke="grey" stroke-width="2" points="388.81,-549.56 396.43,-542.2 385.89,-543.2 388.81,-549.56"/>
</g>
<!-- 11 -->
<g id="node12" class="node">
<title>11</title>
<path fill="none" stroke="#88d856" stroke-width="2" d="M533.25,-468C533.25,-468 443,-468 443,-468 437,-468 431,-462 431,-456 431,-456 431,-444 431,-444 431,-438 437,-432 443,-432 443,-432 533.25,-432 533.25,-432 539.25,-432 545.25,-438 545.25,-444 545.25,-444 545.25,-456 545.25,-456 545.25,-462 539.25,-468 533.25,-468"/>
<text xml:space="preserve" text-anchor="middle" x="488.12" y="-446.88" font-family="sans" font-size="10.00">get_boundary_forcings</text>
</g>
<!-- 2&#45;&gt;11 -->
<g id="edge23" class="edge">
<title>2&#45;&gt;11</title>
<path fill="none" stroke="grey" stroke-width="2" d="M350.79,-585.3C405.39,-577.31 477.42,-562.75 495.12,-540 507.9,-523.58 505.35,-499.91 500.04,-481.11"/>
<polygon fill="grey" stroke="grey" stroke-width="2" points="503.37,-480.02 496.92,-471.61 496.72,-482.2 503.37,-480.02"/>
</g>
<!-- 3 -->
<g id="node4" class="node">
<title>3</title>
<path fill="none" stroke="#5692d8" stroke-width="2" d="M325.62,-684C325.62,-684 246.62,-684 246.62,-684 240.62,-684 234.62,-678 234.62,-672 234.62,-672 234.62,-660 234.62,-660 234.62,-654 240.62,-648 246.62,-648 246.62,-648 325.62,-648 325.62,-648 331.62,-648 337.62,-654 337.62,-660 337.62,-660 337.62,-672 337.62,-672 337.62,-678 331.62,-684 325.62,-684"/>
<text xml:space="preserve" text-anchor="middle" x="286.12" y="-669.25" font-family="sans" font-size="10.00">split_delta_polygons</text>
<text xml:space="preserve" text-anchor="middle" x="286.12" y="-656.5" font-family="sans" font-size="10.00">basin_id: 7126506</text>
</g>
<!-- 3&#45;&gt;2 -->
<g id="edge10" class="edge">
<title>3&#45;&gt;2</title>
<path fill="none" stroke="grey" stroke-width="2" d="M286.12,-647.34C286.12,-640.75 286.12,-633.08 286.12,-625.67"/>
<polygon fill="grey" stroke="grey" stroke-width="2" points="289.63,-625.93 286.13,-615.93 282.63,-625.93 289.63,-625.93"/>
</g>
<!-- 4&#45;&gt;1 -->
<g id="edge5" class="edge">
<title>4&#45;&gt;1</title>
<path fill="none" stroke="grey" stroke-width="2" d="M129.53,-287.34C136.56,-279.77 144.93,-270.75 152.73,-262.35"/>
<polygon fill="grey" stroke="grey" stroke-width="2" points="155.2,-264.83 159.44,-255.12 150.07,-260.07 155.2,-264.83"/>
</g>
<!-- 5&#45;&gt;1 -->
<g id="edge7" class="edge">
<title>5&#45;&gt;1</title>
<path fill="none" stroke="grey" stroke-width="2" d="M47.5,-359.02C47.75,-339.52 50.98,-308.47 67.12,-288 83.3,-267.49 109.37,-254.48 132.18,-246.48"/>
<polygon fill="grey" stroke="grey" stroke-width="2" points="133.1,-249.86 141.55,-243.47 130.96,-243.2 133.1,-249.86"/>
</g>
<!-- 5&#45;&gt;4 -->
<g id="edge12" class="edge">
<title>5&#45;&gt;4</title>
<path fill="none" stroke="grey" stroke-width="2" d="M64.53,-359.34C71.56,-351.77 79.93,-342.75 87.73,-334.35"/>
<polygon fill="grey" stroke="grey" stroke-width="2" points="90.2,-336.83 94.44,-327.12 85.07,-332.07 90.2,-336.83"/>
</g>
<!-- 13 -->
<g id="node14" class="node">
<title>13</title>
<path fill="none" stroke="#56b1d8" stroke-width="2" d="M87.12,-108C87.12,-108 35.12,-108 35.12,-108 29.12,-108 23.12,-102 23.12,-96 23.12,-96 23.12,-84 23.12,-84 23.12,-78 29.12,-72 35.12,-72 35.12,-72 87.12,-72 87.12,-72 93.12,-72 99.12,-78 99.12,-84 99.12,-84 99.12,-96 99.12,-96 99.12,-102 93.12,-108 87.12,-108"/>
<text xml:space="preserve" text-anchor="middle" x="61.12" y="-86.88" font-family="sans" font-size="10.00">sanity_checks</text>
</g>
<!-- 5&#45;&gt;13 -->
<g id="edge27" class="edge">
<title>5&#45;&gt;13</title>
<path fill="none" stroke="grey" stroke-width="2" d="M47.71,-359.33C47.49,-349.03 47.24,-335.78 47.12,-324 46.97,-308 46.56,-303.99 47.12,-288 49.22,-229.1 54.81,-160.48 58.26,-121.75"/>
<polygon fill="grey" stroke="grey" stroke-width="2" points="61.74,-122.19 59.15,-111.92 54.76,-121.56 61.74,-122.19"/>
</g>
<!-- 6&#45;&gt;1 -->
<g id="edge6" class="edge">
<title>6&#45;&gt;1</title>
<path fill="none" stroke="grey" stroke-width="2" d="M226.06,-431.09C219.27,-401.33 205.08,-339.82 192.12,-288 190.26,-280.52 188.17,-272.47 186.19,-264.96"/>
<polygon fill="grey" stroke="grey" stroke-width="2" points="189.64,-264.33 183.69,-255.56 182.88,-266.13 189.64,-264.33"/>
</g>
<!-- 7&#45;&gt;6 -->
<g id="edge15" class="edge">
<title>7&#45;&gt;6</title>
<path fill="none" stroke="grey" stroke-width="2" d="M225.64,-503.34C226.2,-496.75 226.86,-489.08 227.5,-481.67"/>
<polygon fill="grey" stroke="grey" stroke-width="2" points="230.97,-482.18 228.33,-471.92 223.99,-481.58 230.97,-482.18"/>
</g>
<!-- 8&#45;&gt;1 -->
<g id="edge8" class="edge">
<title>8&#45;&gt;1</title>
<path fill="none" stroke="grey" stroke-width="2" d="M286.91,-287.15C267.55,-277.88 243.75,-266.46 223.34,-256.68"/>
<polygon fill="grey" stroke="grey" stroke-width="2" points="225.04,-253.61 214.51,-252.45 222.02,-259.93 225.04,-253.61"/>
</g>
<!-- 9&#45;&gt;8 -->
<g id="edge18" class="edge">
<title>9&#45;&gt;8</title>
<path fill="none" stroke="grey" stroke-width="2" d="M383.94,-359.34C374.91,-351.44 364.08,-341.96 354.14,-333.26"/>
<polygon fill="grey" stroke="grey" stroke-width="2" points="356.69,-330.85 346.86,-326.9 352.08,-336.11 356.69,-330.85"/>
</g>
<!-- 10&#45;&gt;9 -->
<g id="edge20" class="edge">
<title>10&#45;&gt;9</title>
<path fill="none" stroke="grey" stroke-width="2" d="M432.38,-503.45C429.13,-493.18 425.13,-479.93 422.12,-468 417.27,-448.7 412.83,-426.79 409.57,-409.54"/>
<polygon fill="grey" stroke="grey" stroke-width="2" points="413.03,-409.02 407.77,-399.82 406.15,-410.29 413.03,-409.02"/>
</g>
<!-- 10&#45;&gt;11 -->
<g id="edge24" class="edge">
<title>10&#45;&gt;11</title>
<path fill="none" stroke="grey" stroke-width="2" d="M450.74,-503.34C455.91,-496.1 462.03,-487.53 467.8,-479.45"/>
<polygon fill="grey" stroke="grey" stroke-width="2" points="470.61,-481.54 473.58,-471.37 464.92,-477.47 470.61,-481.54"/>
</g>
<!-- 11&#45;&gt;1 -->
<g id="edge9" class="edge">
<title>11&#45;&gt;1</title>
<path fill="none" stroke="grey" stroke-width="2" d="M486.84,-431.31C484.74,-412.35 479.29,-382.01 465.12,-360 437.59,-317.21 421.47,-311.08 376.12,-288 327.34,-263.16 265.68,-249.04 224.24,-241.72"/>
<polygon fill="grey" stroke="grey" stroke-width="2" points="224.96,-238.29 214.52,-240.08 223.8,-245.19 224.96,-238.29"/>
</g>
<!-- 11&#45;&gt;9 -->
<g id="edge21" class="edge">
<title>11&#45;&gt;9</title>
<path fill="none" stroke="grey" stroke-width="2" d="M466.93,-431.34C457.35,-423.36 445.85,-413.77 435.31,-404.99"/>
<polygon fill="grey" stroke="grey" stroke-width="2" points="437.86,-402.55 427.93,-398.84 433.37,-407.93 437.86,-402.55"/>
</g>
<!-- 12&#45;&gt;0 -->
<g id="edge2" class="edge">
<title>12&#45;&gt;0</title>
<path fill="none" stroke="grey" stroke-width="2" d="M115.77,-143.02C117.92,-119.54 121.71,-78.11 124.32,-49.64"/>
<polygon fill="grey" stroke="grey" stroke-width="2" points="127.79,-50.13 125.22,-39.85 120.82,-49.49 127.79,-50.13"/>
</g>
<!-- 12&#45;&gt;13 -->
<g id="edge26" class="edge">
<title>12&#45;&gt;13</title>
<path fill="none" stroke="grey" stroke-width="2" d="M100.75,-143.34C95.21,-136.01 88.64,-127.34 82.46,-119.18"/>
<polygon fill="grey" stroke="grey" stroke-width="2" points="85.33,-117.18 76.51,-111.32 79.75,-121.4 85.33,-117.18"/>
</g>
<!-- 13&#45;&gt;0 -->
<g id="edge3" class="edge">
<title>13&#45;&gt;0</title>
<path fill="none" stroke="grey" stroke-width="2" d="M77.78,-71.34C84.92,-63.77 93.42,-54.75 101.33,-46.35"/>
<polygon fill="grey" stroke="grey" stroke-width="2" points="103.86,-48.78 108.17,-39.1 98.76,-43.98 103.86,-48.78"/>
</g>
</g>
</svg>
