<?xml version="1.0" encoding="UTF-8" standalone="no"?>
<!DOCTYPE svg PUBLIC "-//W3C//DTD SVG 1.1//EN"
 "http://www.w3.org/Graphics/SVG/1.1/DTD/svg11.dtd">
<!-- Generated by graphviz version 14.1.2 (0)
 -->
<!-- Title: snakemake_dag Pages: 1 -->
<svg width="647pt" height="476pt"
 viewBox="0.00 0.00 647.00 476.00" xmlns="http://www.w3.org/2000/svg" xmlns:xlink="http://www.w3.org/1999/xlink">
<g id="graph0" class="graph" transform="scale(1 1) rotate(0) translate(4 472)">
<title>snakemake_dag</title>
<polygon fill="white" stroke="none" points="-4,4 -4,-472 642.52,-472 642.52,4 -4,4"/>
<!-- 0 -->
<g id="node1" class="node">
<title>0</title>
<path fill="none" stroke="#56d0d8" stroke-width="2" d="M359.62,-36C359.62,-36 320.38,-36 320.38,-36 314.38,-36 308.38,-30 308.38,-24 308.38,-24 308.38,-12 308.38,-12 308.38,-6 314.38,0 320.38,0 320.38,0 359.62,0 359.62,0 365.62,0 371.62,-6 371.62,-12 371.62,-12 371.62,-24 371.62,-24 371.62,-30 365.62,-36 359.62,-36"/>
<text xml:space="preserve" text-anchor="middle" x="340" y="-14.88" font-family="sans" font-size="10.00">preprocess</text>
</g>
<!-- 1 -->
<g id="node2" class="node">
<title>1</title>
<path fill="none" stroke="#5692d8" stroke-width="2" d="M200.5,-468C200.5,-468 121.5,-468 121.5,-468 115.5,-468 109.5,-462 109.5,-456 109.5,-456 109.5,-444 109.5,-444 109.5,-438 115.5,-432 121.5,-432 121.5,-432 200.5,-432 200.5,-432 206.5,-432 212.5,-438 212.5,-444 212.5,-444 212.5,-456 212.5,-456 212.5,-462 206.5,-468 200.5,-468"/>
<text xml:space="preserve" text-anchor="middle" x="161" y="-446.88" font-family="sans" font-size="10.00">split_delta_polygons</text>
</g>
<!-- 1&#45;&gt;0 -->
<g id="edge11" class="edge">
<title>1&#45;&gt;0</title>
<path fill="none" stroke="grey" stroke-width="2" d="M114,-431.04C66.48,-409.46 0,-368.31 0,-307 0,-307 0,-307 0,-161 0,-116.06 11.63,-98.4 48,-72 86.71,-43.9 222.9,-28.68 294.78,-22.44"/>
<polygon fill="grey" stroke="grey" stroke-width="2" points="294.73,-25.96 304.4,-21.63 294.15,-18.98 294.73,-25.96"/>
</g>
<!-- 2 -->
<g id="node3" class="node">
<title>2</title>
<path fill="none" stroke="#9fd856" stroke-width="2" d="M373.88,-396C373.88,-396 270.12,-396 270.12,-396 264.12,-396 258.12,-390 258.12,-384 258.12,-384 258.12,-372 258.12,-372 258.12,-366 264.12,-360 270.12,-360 270.12,-360 373.88,-360 373.88,-360 379.88,-360 385.88,-366 385.88,-372 385.88,-372 385.88,-384 385.88,-384 385.88,-390 379.88,-396 373.88,-396"/>
<text xml:space="preserve" text-anchor="middle" x="322" y="-374.88" font-family="sans" font-size="10.00">determine_model_domain</text>
</g>
<!-- 1&#45;&gt;2 -->
<g id="edge12" class="edge">
<title>1&#45;&gt;2</title>
<path fill="none" stroke="grey" stroke-width="2" d="M202.04,-431.15C222.4,-422.3 247.24,-411.51 269.01,-402.04"/>
<polygon fill="grey" stroke="grey" stroke-width="2" points="270.2,-405.34 277.98,-398.14 267.41,-398.92 270.2,-405.34"/>
</g>
<!-- 2&#45;&gt;0 -->
<g id="edge8" class="edge">
<title>2&#45;&gt;0</title>
<path fill="none" stroke="grey" stroke-width="2" d="M386.73,-373.63C463.44,-368.27 584.94,-355.03 617,-324 646.06,-295.87 636,-275.45 636,-235 636,-235 636,-235 636,-161 636,-51.15 468.23,-26.22 385.3,-20.6"/>
<polygon fill="grey" stroke="grey" stroke-width="2" points="385.74,-17.12 375.55,-20.03 385.32,-24.11 385.74,-17.12"/>
</g>
<!-- 3 -->
<g id="node4" class="node">
<title>3</title>
<path fill="none" stroke="#56d882" stroke-width="2" d="M595.88,-324C595.88,-324 552.12,-324 552.12,-324 546.12,-324 540.12,-318 540.12,-312 540.12,-312 540.12,-300 540.12,-300 540.12,-294 546.12,-288 552.12,-288 552.12,-288 595.88,-288 595.88,-288 601.88,-288 607.88,-294 607.88,-300 607.88,-300 607.88,-312 607.88,-312 607.88,-318 601.88,-324 595.88,-324"/>
<text xml:space="preserve" text-anchor="middle" x="574" y="-302.88" font-family="sans" font-size="10.00">get_landuse</text>
</g>
<!-- 2&#45;&gt;3 -->
<g id="edge13" class="edge">
<title>2&#45;&gt;3</title>
<path fill="none" stroke="grey" stroke-width="2" d="M386.71,-361.7C427.02,-351.8 479.82,-338.15 526,-324 526.4,-323.88 526.81,-323.75 527.22,-323.62"/>
<polygon fill="grey" stroke="grey" stroke-width="2" points="527.95,-327.07 536.37,-320.64 525.78,-320.41 527.95,-327.07"/>
</g>
<!-- 4 -->
<g id="node5" class="node">
<title>4</title>
<path fill="none" stroke="#56d8c1" stroke-width="2" d="M547.5,-252C547.5,-252 492.5,-252 492.5,-252 486.5,-252 480.5,-246 480.5,-240 480.5,-240 480.5,-228 480.5,-228 480.5,-222 486.5,-216 492.5,-216 492.5,-216 547.5,-216 547.5,-216 553.5,-216 559.5,-222 559.5,-228 559.5,-228 559.5,-240 559.5,-240 559.5,-246 553.5,-252 547.5,-252"/>
<text xml:space="preserve" text-anchor="middle" x="520" y="-230.88" font-family="sans" font-size="10.00">get_roughness</text>
</g>
<!-- 2&#45;&gt;4 -->
<g id="edge14" class="edge">
<title>2&#45;&gt;4</title>
<path fill="none" stroke="grey" stroke-width="2" d="M386.47,-371.66C422.2,-365.47 464.95,-352.22 493,-324 508.3,-308.61 514.97,-284.85 517.87,-265.75"/>
<polygon fill="grey" stroke="grey" stroke-width="2" points="521.34,-266.2 519.02,-255.86 514.38,-265.39 521.34,-266.2"/>
</g>
<!-- 5 -->
<g id="node6" class="node">
<title>5</title>
<path fill="none" stroke="#56d863" stroke-width="2" d="M472.12,-324C472.12,-324 399.88,-324 399.88,-324 393.88,-324 387.88,-318 387.88,-312 387.88,-312 387.88,-300 387.88,-300 387.88,-294 393.88,-288 399.88,-288 399.88,-288 472.12,-288 472.12,-288 478.12,-288 484.12,-294 484.12,-300 484.12,-300 484.12,-312 484.12,-312 484.12,-318 478.12,-324 472.12,-324"/>
<text xml:space="preserve" text-anchor="middle" x="436" y="-302.88" font-family="sans" font-size="10.00">get_land_polygons</text>
</g>
<!-- 2&#45;&gt;5 -->
<g id="edge16" class="edge">
<title>2&#45;&gt;5</title>
<path fill="none" stroke="grey" stroke-width="2" d="M351.06,-359.15C364.73,-350.76 381.24,-340.62 396.06,-331.52"/>
<polygon fill="grey" stroke="grey" stroke-width="2" points="397.72,-334.61 404.41,-326.4 394.06,-328.65 397.72,-334.61"/>
</g>
<!-- 6 -->
<g id="node7" class="node">
<title>6</title>
<path fill="none" stroke="#68d856" stroke-width="2" d="M411.88,-252C411.88,-252 362.12,-252 362.12,-252 356.12,-252 350.12,-246 350.12,-240 350.12,-240 350.12,-228 350.12,-228 350.12,-222 356.12,-216 362.12,-216 362.12,-216 411.88,-216 411.88,-216 417.88,-216 423.88,-222 423.88,-228 423.88,-228 423.88,-240 423.88,-240 423.88,-246 417.88,-252 411.88,-252"/>
<text xml:space="preserve" text-anchor="middle" x="387" y="-230.88" font-family="sans" font-size="10.00">get_elevation</text>
</g>
<!-- 2&#45;&gt;6 -->
<g id="edge18" class="edge">
<title>2&#45;&gt;6</title>
<path fill="none" stroke="grey" stroke-width="2" d="M330.23,-359.02C341.12,-335.22 360.46,-292.97 373.51,-264.48"/>
<polygon fill="grey" stroke="grey" stroke-width="2" points="376.59,-266.14 377.57,-255.59 370.23,-263.23 376.59,-266.14"/>
</g>
<!-- 7 -->
<g id="node8" class="node">
<title>7</title>
<path fill="none" stroke="#56d8a2" stroke-width="2" d="M205.75,-324C205.75,-324 134.25,-324 134.25,-324 128.25,-324 122.25,-318 122.25,-312 122.25,-312 122.25,-300 122.25,-300 122.25,-294 128.25,-288 134.25,-288 134.25,-288 205.75,-288 205.75,-288 211.75,-288 217.75,-294 217.75,-300 217.75,-300 217.75,-312 217.75,-312 217.75,-318 211.75,-324 205.75,-324"/>
<text xml:space="preserve" text-anchor="middle" x="170" y="-302.88" font-family="sans" font-size="10.00">get_river_network</text>
</g>
<!-- 2&#45;&gt;7 -->
<g id="edge19" class="edge">
<title>2&#45;&gt;7</title>
<path fill="none" stroke="grey" stroke-width="2" d="M283.25,-359.15C264.21,-350.38 241.02,-339.71 220.6,-330.3"/>
<polygon fill="grey" stroke="grey" stroke-width="2" points="222.24,-327.2 211.69,-326.2 219.31,-333.56 222.24,-327.2"/>
</g>
<!-- 8 -->
<g id="node9" class="node">
<title>8</title>
<path fill="none" stroke="#88d856" stroke-width="2" d="M168.12,-252C168.12,-252 77.88,-252 77.88,-252 71.88,-252 65.88,-246 65.88,-240 65.88,-240 65.88,-228 65.88,-228 65.88,-222 71.88,-216 77.88,-216 77.88,-216 168.12,-216 168.12,-216 174.12,-216 180.12,-222 180.12,-228 180.12,-228 180.12,-240 180.12,-240 180.12,-246 174.12,-252 168.12,-252"/>
<text xml:space="preserve" text-anchor="middle" x="123" y="-230.88" font-family="sans" font-size="10.00">get_boundary_forcings</text>
</g>
<!-- 2&#45;&gt;8 -->
<g id="edge20" class="edge">
<title>2&#45;&gt;8</title>
<path fill="none" stroke="grey" stroke-width="2" d="M257.33,-369.3C202.74,-361.31 130.7,-346.75 113,-324 100.12,-307.45 103.59,-283.63 109.75,-264.8"/>
<polygon fill="grey" stroke="grey" stroke-width="2" points="112.99,-266.14 113.22,-255.55 106.44,-263.68 112.99,-266.14"/>
</g>
<!-- 9 -->
<g id="node10" class="node">
<title>9</title>
<path fill="none" stroke="#d8d356" stroke-width="2" d="M297.25,-180C297.25,-180 216.75,-180 216.75,-180 210.75,-180 204.75,-174 204.75,-168 204.75,-168 204.75,-156 204.75,-156 204.75,-150 210.75,-144 216.75,-144 216.75,-144 297.25,-144 297.25,-144 303.25,-144 309.25,-150 309.25,-156 309.25,-156 309.25,-168 309.25,-168 309.25,-174 303.25,-180 297.25,-180"/>
<text xml:space="preserve" text-anchor="middle" x="257" y="-158.88" font-family="sans" font-size="10.00">clean_river_network</text>
</g>
<!-- 2&#45;&gt;9 -->
<g id="edge22" class="edge">
<title>2&#45;&gt;9</title>
<path fill="none" stroke="grey" stroke-width="2" d="M316.57,-359.12C305.43,-322.46 279.9,-238.41 266.16,-193.16"/>
<polygon fill="grey" stroke="grey" stroke-width="2" points="269.6,-192.42 263.34,-183.87 262.9,-194.46 269.6,-192.42"/>
</g>
<!-- 10 -->
<g id="node11" class="node">
<title>10</title>
<path fill="none" stroke="#d85656" stroke-width="2" d="M371.25,-108C371.25,-108 308.75,-108 308.75,-108 302.75,-108 296.75,-102 296.75,-96 296.75,-96 296.75,-84 296.75,-84 296.75,-78 302.75,-72 308.75,-72 308.75,-72 371.25,-72 371.25,-72 377.25,-72 383.25,-78 383.25,-84 383.25,-84 383.25,-96 383.25,-96 383.25,-102 377.25,-108 371.25,-108"/>
<text xml:space="preserve" text-anchor="middle" x="340" y="-86.88" font-family="sans" font-size="10.00">add_river_depth</text>
</g>
<!-- 2&#45;&gt;10 -->
<g id="edge26" class="edge">
<title>2&#45;&gt;10</title>
<path fill="none" stroke="grey" stroke-width="2" d="M323.13,-359.11C326.12,-311.56 334.3,-181.6 338.06,-121.83"/>
<polygon fill="grey" stroke="grey" stroke-width="2" points="341.55,-122.11 338.68,-111.9 334.56,-121.67 341.55,-122.11"/>
</g>
<!-- 11 -->
<g id="node12" class="node">
<title>11</title>
<path fill="none" stroke="#5673d8" stroke-width="2" d="M228.5,-108C228.5,-108 119.5,-108 119.5,-108 113.5,-108 107.5,-102 107.5,-96 107.5,-96 107.5,-84 107.5,-84 107.5,-78 113.5,-72 119.5,-72 119.5,-72 228.5,-72 228.5,-72 234.5,-72 240.5,-78 240.5,-84 240.5,-84 240.5,-96 240.5,-96 240.5,-102 234.5,-108 228.5,-108"/>
<text xml:space="preserve" text-anchor="middle" x="174" y="-86.88" font-family="sans" font-size="10.00">test_discharge_comparison</text>
</g>
<!-- 2&#45;&gt;11 -->
<g id="edge28" class="edge">
<title>2&#45;&gt;11</title>
<path fill="none" stroke="grey" stroke-width="2" d="M307.67,-359.13C281.68,-325.84 226.6,-251.25 196,-180 187.98,-161.33 182.49,-139.15 179,-121.6"/>
<polygon fill="grey" stroke="grey" stroke-width="2" points="182.47,-121.12 177.21,-111.92 175.58,-122.39 182.47,-121.12"/>
</g>
<!-- 3&#45;&gt;0 -->
<g id="edge5" class="edge">
<title>3&#45;&gt;0</title>
<path fill="none" stroke="grey" stroke-width="2" d="M575.23,-287.24C575.97,-269.01 575.73,-239.99 569,-216 549.39,-146.12 547.15,-119.18 492,-72 461.63,-46.02 417.75,-32.53 384.94,-25.68"/>
<polygon fill="grey" stroke="grey" stroke-width="2" points="385.97,-22.31 375.49,-23.86 384.65,-29.18 385.97,-22.31"/>
</g>
<!-- 3&#45;&gt;4 -->
<g id="edge15" class="edge">
<title>3&#45;&gt;4</title>
<path fill="none" stroke="grey" stroke-width="2" d="M560.37,-287.34C554.73,-280.01 548.03,-271.34 541.74,-263.18"/>
<polygon fill="grey" stroke="grey" stroke-width="2" points="544.54,-261.08 535.66,-255.3 539,-265.35 544.54,-261.08"/>
</g>
<!-- 4&#45;&gt;0 -->
<g id="edge7" class="edge">
<title>4&#45;&gt;0</title>
<path fill="none" stroke="grey" stroke-width="2" d="M518.73,-215.12C515.51,-182.58 504.31,-113.27 466,-72 444.7,-49.05 411.9,-35.68 385.1,-28.11"/>
<polygon fill="grey" stroke="grey" stroke-width="2" points="385.99,-24.73 375.44,-25.6 384.24,-31.5 385.99,-24.73"/>
</g>
<!-- 5&#45;&gt;0 -->
<g id="edge1" class="edge">
<title>5&#45;&gt;0</title>
<path fill="none" stroke="grey" stroke-width="2" d="M438.86,-287.07C444.49,-245.76 453.08,-142.11 411,-72 404.17,-60.62 393.89,-50.9 383.25,-43"/>
<polygon fill="grey" stroke="grey" stroke-width="2" points="385.33,-40.19 375.1,-37.43 381.38,-45.96 385.33,-40.19"/>
</g>
<!-- 5&#45;&gt;6 -->
<g id="edge17" class="edge">
<title>5&#45;&gt;6</title>
<path fill="none" stroke="grey" stroke-width="2" d="M423.64,-287.34C418.57,-280.1 412.57,-271.53 406.92,-263.45"/>
<polygon fill="grey" stroke="grey" stroke-width="2" points="409.87,-261.57 401.27,-255.38 404.13,-265.58 409.87,-261.57"/>
</g>
<!-- 6&#45;&gt;0 -->
<g id="edge9" class="edge">
<title>6&#45;&gt;0</title>
<path fill="none" stroke="grey" stroke-width="2" d="M392.08,-215.26C399.87,-184.68 411.89,-120.67 392,-72 388.02,-62.27 381.3,-53.36 373.99,-45.73"/>
<polygon fill="grey" stroke="grey" stroke-width="2" points="376.43,-43.22 366.77,-38.88 371.61,-48.3 376.43,-43.22"/>
</g>
<!-- 7&#45;&gt;0 -->
<g id="edge4" class="edge">
<title>7&#45;&gt;0</title>
<path fill="none" stroke="grey" stroke-width="2" d="M121.48,-295.07C97.72,-287.5 71.24,-274.4 57,-252 30.23,-209.88 4.75,-150.53 80,-72 109,-41.74 228.13,-27.72 294.62,-22.14"/>
<polygon fill="grey" stroke="grey" stroke-width="2" points="294.85,-25.63 304.54,-21.35 294.3,-18.66 294.85,-25.63"/>
</g>
<!-- 7&#45;&gt;8 -->
<g id="edge21" class="edge">
<title>7&#45;&gt;8</title>
<path fill="none" stroke="grey" stroke-width="2" d="M158.14,-287.34C153.28,-280.1 147.53,-271.53 142.1,-263.45"/>
<polygon fill="grey" stroke="grey" stroke-width="2" points="145.19,-261.77 136.71,-255.41 139.38,-265.67 145.19,-261.77"/>
</g>
<!-- 7&#45;&gt;9 -->
<g id="edge24" class="edge">
<title>7&#45;&gt;9</title>
<path fill="none" stroke="grey" stroke-width="2" d="M181.02,-287.02C195.73,-263.01 221.95,-220.21 239.41,-191.72"/>
<polygon fill="grey" stroke="grey" stroke-width="2" points="242.25,-193.77 244.49,-183.42 236.28,-190.12 242.25,-193.77"/>
</g>
<!-- 8&#45;&gt;0 -->
<g id="edge3" class="edge">
<title>8&#45;&gt;0</title>
<path fill="none" stroke="grey" stroke-width="2" d="M112.47,-215.01C95.03,-182.62 65.27,-113.96 99,-72 123.12,-42 232.15,-28 294.98,-22.32"/>
<polygon fill="grey" stroke="grey" stroke-width="2" points="294.96,-25.84 304.62,-21.49 294.36,-18.86 294.96,-25.84"/>
</g>
<!-- 8&#45;&gt;9 -->
<g id="edge23" class="edge">
<title>8&#45;&gt;9</title>
<path fill="none" stroke="grey" stroke-width="2" d="M157.16,-215.15C173.7,-206.52 193.78,-196.02 211.59,-186.72"/>
<polygon fill="grey" stroke="grey" stroke-width="2" points="212.98,-189.95 220.22,-182.21 209.73,-183.74 212.98,-189.95"/>
</g>
<!-- 8&#45;&gt;11 -->
<g id="edge29" class="edge">
<title>8&#45;&gt;11</title>
<path fill="none" stroke="grey" stroke-width="2" d="M129.46,-215.02C137.97,-191.33 153.04,-149.35 163.27,-120.86"/>
<polygon fill="grey" stroke="grey" stroke-width="2" points="166.48,-122.28 166.57,-111.69 159.9,-119.92 166.48,-122.28"/>
</g>
<!-- 9&#45;&gt;0 -->
<g id="edge2" class="edge">
<title>9&#45;&gt;0</title>
<path fill="none" stroke="grey" stroke-width="2" d="M260.73,-143.27C265.21,-124.54 273.93,-94.66 288,-72 293.8,-62.66 301.51,-53.65 309.21,-45.8"/>
<polygon fill="grey" stroke="grey" stroke-width="2" points="311.54,-48.42 316.3,-38.96 306.67,-43.39 311.54,-48.42"/>
</g>
<!-- 9&#45;&gt;10 -->
<g id="edge25" class="edge">
<title>9&#45;&gt;10</title>
<path fill="none" stroke="grey" stroke-width="2" d="M277.94,-143.34C287.31,-135.44 298.54,-125.96 308.86,-117.26"/>
<polygon fill="grey" stroke="grey" stroke-width="2" points="311.07,-119.98 316.46,-110.85 306.56,-114.62 311.07,-119.98"/>
</g>
<!-- 9&#45;&gt;11 -->
<g id="edge27" class="edge">
<title>9&#45;&gt;11</title>
<path fill="none" stroke="grey" stroke-width="2" d="M236.06,-143.34C226.69,-135.44 215.46,-125.96 205.14,-117.26"/>
<polygon fill="grey" stroke="grey" stroke-width="2" points="207.44,-114.62 197.54,-110.85 202.93,-119.98 207.44,-114.62"/>
</g>
<!-- 10&#45;&gt;0 -->
<g id="edge6" class="edge">
<title>10&#45;&gt;0</title>
<path fill="none" stroke="grey" stroke-width="2" d="M340,-71.34C340,-64.75 340,-57.08 340,-49.67"/>
<polygon fill="grey" stroke="grey" stroke-width="2" points="343.5,-49.93 340,-39.93 336.5,-49.93 343.5,-49.93"/>
</g>
<!-- 11&#45;&gt;0 -->
<g id="edge10" class="edge">
<title>11&#45;&gt;0</title>
<path fill="none" stroke="grey" stroke-width="2" d="M216.32,-71.15C240.56,-60.93 270.95,-48.12 295.54,-37.75"/>
<polygon fill="grey" stroke="grey" stroke-width="2" points="296.81,-41.01 304.66,-33.9 294.09,-34.56 296.81,-41.01"/>
</g>
</g>
</svg>
